# xmcd CD database file
#
# Track frame offsets:
#	150
#	18230
#	33870
#	51985
#	69342
#	84767
#	95167
#
# Disc length: 1495 seconds
#
# Revision: 0
# Processed by: cddbd v1.5.2PL0 Copyright (c) Steve Scherf et al.
# Submitted via: CDex 1.70beta2
#
DISCID=4c05d507
DTITLE=Shawna J - six
DYEAR=1995
DGENRE=Jazz
TTITLE0=Juliet Thread
TTITLE1=Abattage
TTITLE2=Privilege
TTITLE3=Whitewash
TTITLE4=Juliet Threat (reality mix)
TTITLE5=Tribes
TTITLE6=The Stone
EXTD=YEAR: 1995
EXTT0=
EXTT1=
EXTT2=
EXTT3=
EXTT4=
EXTT5=
EXTT6=
PLAYORDER=
